<svg width="111" height="111" viewBox="0 0 111 111" fill="none" xmlns="http://www.w3.org/2000/svg">
<path fill-rule="evenodd" clip-rule="evenodd" d="M103 96.2549C103 98.8152 101.924 100.539 100.563 101.632C99.2222 102.709 97.6222 103.163 96.542 103.253L96.5205 103.255H86V63.7549H63V103.755H12.5C9.90228 103.755 8.25193 102.476 7.27441 100.893C6.31334 99.3353 6 97.4875 6 96.2549V50.7549H103V96.2549ZM21.5 63.2549V87.2549H45.5V63.2549H21.5Z" fill="white"/>
<path d="M18 6.75488C12.8 6.75488 11.1667 11.4215 11 13.7549V19.2549L0 33.7549C4.4 46.5549 10.8333 41.7549 13.5 37.7549L23 19.2549H35L31.5 35.2549C37.1 47.2549 44.1667 40.9216 47 36.2549V19.2549H63.5V35.2549C71.1 48.0549 76.6667 39.9216 78.5 34.2549L75 19.2549H87.5L98 40.7549C108.4 45.5549 110.667 38.4215 110.5 34.2549L99 19.7549V13.7549C99 9.35488 94.3333 7.25488 92 6.75488H18Z" fill="white"/>
</svg>
